<?xml version="1.0" standalone="no"?>
<!DOCTYPE svg PUBLIC "-//W3C//DTD SVG 20010904//EN"
 "http://www.w3.org/TR/2001/REC-SVG-20010904/DTD/svg10.dtd">
<svg version="1.0" xmlns="http://www.w3.org/2000/svg"
 width="604.000000pt" height="604.000000pt" viewBox="0 0 604.000000 604.000000"
 preserveAspectRatio="xMidYMid meet">
<metadata>
Created by potrace 1.11, written by Peter Selinger 2001-2013
</metadata>
<g transform="translate(0.000000,604.000000) scale(0.100000,-0.100000)"
fill="#000000" stroke="none">
<path d="M2770 6025 c-573 -78 -1080 -419 -1377 -923 -126 -215 -211 -470
-243 -732 -22 -183 -7 -482 33 -651 l14 -57 -78 -32 c-173 -71 -380 -213 -543
-370 -378 -366 -575 -831 -576 -1360 0 -225 24 -389 87 -585 94 -290 232 -521
442 -738 369 -381 833 -577 1366 -577 380 0 726 100 1033 299 l92 60 93 -60
c230 -149 498 -248 776 -284 136 -19 376 -19 512 0 580 77 1087 415 1386 923
266 451 328 1032 166 1537 -160 496 -509 900 -973 1127 -58 28 -106 52 -107
52 -1 1 5 28 13 61 41 174 56 470 34 655 -32 262 -117 517 -243 732 -263 447
-697 770 -1196 889 -199 48 -503 62 -711 34z m433 -310 c749 -98 1304 -653
1402 -1402 19 -143 19 -193 0 -336 -98 -749 -653 -1304 -1402 -1402 -143 -19
-193 -19 -336 0 -749 98 -1304 653 -1402 1402 -19 143 -19 193 0 336 97 744
650 1300 1390 1401 135 19 212 19 348 1z m1702 -2442 c446 -246 741 -687 810
-1210 19 -143 19 -193 0 -336 -98 -749 -653 -1304 -1402 -1402 -143 -19 -193
-19 -336 0 -222 29 -422 95 -609 201 l-98 55 71 82 c232 268 386 615 434 976
27 200 14 501 -28 682 l-14 57 78 32 c93 38 262 137 367 215 107 80 324 302
400 410 35 50 91 138 124 198 71 125 55 122 203 40z"/>
</g>
</svg>
